<svg fill="none" height="124" viewBox="0 0 124 124" width="124" xmlns="http://www.w3.org/2000/svg">
  <circle cx="62" cy="62" fill="white" fill-opacity="0.1" r="62"/>
  <path
    d="M93.0349 33.5567C87.2338 30.9886 81.0157 29.0904 74.5131 28.011C74.4552 28.0001 74.3953 28.0071 74.3416 28.0311C74.2879 28.0551 74.2432 28.0949 74.2136 28.145C73.4174 29.5184 72.5301 31.3087 71.9083 32.723C65.0118 31.7115 58.0005 31.7115 51.1041 32.723C50.4115 31.1555 49.6305 29.6272 48.7647 28.145C48.7353 28.0943 48.6909 28.0536 48.6374 28.0283C48.5839 28.0031 48.5238 27.9944 48.4651 28.0035C41.9664 29.0829 35.7483 30.9811 29.9434 33.553C29.8934 33.5736 29.8511 33.6086 29.822 33.6535C18.0227 50.6815 14.7885 67.289 16.3772 83.688C16.3816 83.7282 16.3943 83.7671 16.4145 83.8023C16.4347 83.8375 16.462 83.8682 16.4947 83.8928C23.3817 88.8148 31.0632 92.5643 39.2175 94.9842C39.2744 95.0014 39.3352 95.0014 39.392 94.9841C39.4488 94.9669 39.499 94.9332 39.536 94.8875C41.2907 92.5838 42.8457 90.1399 44.1845 87.5812C44.203 87.5462 44.2138 87.5078 44.2159 87.4684C44.218 87.429 44.2114 87.3896 44.1967 87.3529C44.182 87.3162 44.1594 87.283 44.1304 87.2556C44.1015 87.2282 44.0669 87.2073 44.029 87.1941C41.5797 86.2887 39.2065 85.196 36.9312 83.9263C36.8903 83.9033 36.8559 83.8708 36.831 83.8316C36.806 83.7924 36.7914 83.7478 36.7884 83.7016C36.7854 83.6555 36.7941 83.6094 36.8137 83.5674C36.8334 83.5254 36.8633 83.4888 36.9009 83.461C37.3786 83.1149 37.8564 82.7538 38.3113 82.3928C38.3523 82.3603 38.4016 82.3397 38.4538 82.3331C38.5061 82.3265 38.5591 82.3343 38.6071 82.3556C53.4965 88.9211 69.622 88.9211 84.3371 82.3556C84.3852 82.333 84.4388 82.3242 84.4917 82.3302C84.5447 82.3361 84.5949 82.3565 84.6366 82.3891C85.0916 82.7538 85.5655 83.1149 86.0471 83.461C86.085 83.4883 86.1154 83.5243 86.1357 83.566C86.1559 83.6076 86.1654 83.6535 86.1631 83.6996C86.1609 83.7457 86.147 83.7906 86.1228 83.8301C86.0985 83.8696 86.0647 83.9027 86.0243 83.9263C83.757 85.2066 81.3986 86.2897 78.9227 87.1904C78.8847 87.204 78.85 87.2253 78.8211 87.2531C78.7922 87.2808 78.7696 87.3143 78.7549 87.3513C78.7401 87.3883 78.7336 87.4279 78.7358 87.4676C78.7379 87.5072 78.7487 87.546 78.7673 87.5812C80.1322 90.1382 81.6943 92.5724 83.4119 94.8838C83.4476 94.9312 83.4974 94.9666 83.5544 94.9853C83.6114 95.0039 83.6729 95.0049 83.7304 94.988C91.8988 92.5748 99.5928 88.8235 106.487 83.8928C106.521 83.8697 106.549 83.8398 106.57 83.8051C106.591 83.7705 106.604 83.7318 106.609 83.6918C108.504 64.732 103.431 48.2585 93.1524 33.6609C93.1272 33.6135 93.0855 33.5765 93.0349 33.5567ZM46.4101 73.702C41.9285 73.702 38.2317 69.7232 38.2317 64.8437C38.2317 59.9604 41.8565 55.9854 46.4101 55.9854C50.9979 55.9854 54.6605 59.9939 54.5885 64.8437C54.5885 69.7269 50.9638 73.702 46.4101 73.702ZM76.6478 73.702C72.1624 73.702 68.4694 69.7232 68.4694 64.8437C68.4694 59.9604 72.0903 55.9854 76.6478 55.9854C81.2356 55.9854 84.8982 59.9939 84.8262 64.8437C84.8262 69.7269 81.2393 73.702 76.6478 73.702Z"
    fill="#8F8F8F"/>
</svg>
