<svg fill="none" height="27" viewBox="0 0 99 27" width="99" xmlns="http://www.w3.org/2000/svg">
  <path
    d="M0.49292 26.0002V0.15625H5.69958V10.5065H14.756V0.15625H19.9942V26.0002H14.756V14.9558H5.69958V26.0002H0.49292Z"
    fill="white"/>
  <path
    d="M28.956 18.8687C28.956 19.9205 29.2926 20.762 29.9658 21.3931C30.639 22.0032 31.512 22.3082 32.5849 22.3082C33.9523 22.3082 35.2145 21.7613 36.3716 20.6673L31.4173 14.3562C29.7764 15.7447 28.956 17.2488 28.956 18.8687ZM23.7493 18.9633C23.7493 15.8709 25.4954 13.1676 28.9876 10.8536C27.5781 9.1075 26.8733 7.61387 26.8733 6.37269C26.8733 4.50039 27.5255 3.0278 28.8298 1.95491C30.1341 0.882027 31.8696 0.345583 34.0364 0.345583C35.9719 0.345583 37.6022 0.839953 38.9276 1.82869C40.2739 2.81743 41.2206 4.02706 41.7675 5.45758L38.0756 7.06691C37.0868 5.42602 35.8982 4.60558 34.5098 4.60558C32.8899 4.60558 32.08 5.24721 32.08 6.53047C32.08 6.80395 32.1747 7.15106 32.364 7.5718C32.5744 7.99254 32.9215 8.55002 33.4053 9.24424C33.9102 9.93846 34.373 10.5591 34.7938 11.106C35.2145 11.653 35.8667 12.4945 36.7502 13.6305C37.6548 14.7454 38.3701 15.6395 38.896 16.3127C39.2326 15.366 39.5166 14.1564 39.748 12.6838L44.3235 13.5042C44.1132 14.9137 43.7766 16.2496 43.3138 17.5118C42.851 18.753 42.4092 19.7102 41.9884 20.3833L46.5009 26.0002H40.4107L39.0853 24.3278C37.1499 25.8424 34.9831 26.5998 32.5849 26.5998C29.808 26.5998 27.6412 25.8635 26.0845 24.3909C24.5277 22.8973 23.7493 21.0881 23.7493 18.9633Z"
    fill="white"/>
  <path
    d="M49.4671 26.0002V0.15625H59.7858C62.6047 0.15625 64.7926 0.903064 66.3493 2.39669C67.906 3.86928 68.6844 5.82573 68.6844 8.26602C68.6844 10.7694 67.8745 12.7574 66.2546 14.23C64.6558 15.6816 62.5416 16.4073 59.912 16.4073H54.7053V26.0002H49.4671ZM54.7053 11.8949H59.1862C60.4695 11.8949 61.4687 11.5794 62.184 10.9482C62.8992 10.3171 63.2569 9.42306 63.2569 8.26602C63.2569 5.8678 61.9105 4.66869 59.2178 4.66869H54.7053V11.8949Z"
    fill="white"/>
  <path d="M70.6759 26.0005V24.2356H72.5446V26.0005H70.6759Z" fill="white" fill-opacity="0.5"/>
  <path d="M75.763 26.0005V14.892H76.9495V26.0005H75.763Z" fill="white" fill-opacity="0.5"/>
  <path
    d="M80.0195 26.0005V14.892H81.384L85.4773 21.9812L86.8121 24.3245H86.9011C86.7825 23.405 86.7232 22.3569 86.7232 21.1803V14.892H87.9096V26.0005H86.5452L82.437 18.8667L81.117 16.5827H81.0577C81.1565 17.5714 81.206 18.6146 81.206 19.7121V26.0005H80.0195Z"
    fill="white" fill-opacity="0.5"/>
  <path
    d="M90.2233 20.4536C90.2233 18.6442 90.6633 17.2204 91.5433 16.1823C92.4232 15.1441 93.5652 14.625 94.9692 14.625C95.8393 14.625 96.5759 14.8672 97.1791 15.3517C97.7921 15.8263 98.2519 16.3948 98.5584 17.0573L97.5499 17.4132C96.8874 16.2268 96.0173 15.6335 94.9396 15.6335C93.8717 15.6335 93.0214 16.0735 92.3886 16.9535C91.7558 17.8236 91.4394 18.9903 91.4394 20.4536C91.4394 21.9367 91.7608 23.1084 92.4035 23.9686C93.0461 24.8189 93.8915 25.2441 94.9396 25.2441C95.602 25.2441 96.1804 25.0611 96.6748 24.6953C97.1692 24.3196 97.54 23.8598 97.7871 23.316L98.855 23.6571C98.5188 24.3789 98.0294 24.9969 97.3867 25.511C96.744 26.0153 95.9382 26.2674 94.9692 26.2674C93.5751 26.2674 92.4331 25.7533 91.5433 24.725C90.6633 23.6868 90.2233 22.263 90.2233 20.4536Z"
    fill="white" fill-opacity="0.5"/>
</svg>
