<svg width="100" height="27" viewBox="0 0 100 27" fill="none" xmlns="http://www.w3.org/2000/svg">
  <path d="M0.49292 26.0002V0.15625H5.69958V10.5065H14.756V0.15625H19.9942V26.0002H14.756V14.9558H5.69958V26.0002H0.49292Z" fill="white"/>
  <path d="M28.956 18.8687C28.956 19.9205 29.2926 20.762 29.9658 21.3931C30.639 22.0032 31.512 22.3082 32.5849 22.3082C33.9523 22.3082 35.2145 21.7613 36.3716 20.6673L31.4173 14.3562C29.7764 15.7447 28.956 17.2488 28.956 18.8687ZM23.7493 18.9633C23.7493 15.8709 25.4954 13.1676 28.9876 10.8536C27.5781 9.1075 26.8733 7.61387 26.8733 6.37269C26.8733 4.50039 27.5255 3.0278 28.8298 1.95491C30.1341 0.882027 31.8696 0.345583 34.0364 0.345583C35.9719 0.345583 37.6022 0.839953 38.9276 1.82869C40.2739 2.81743 41.2206 4.02706 41.7675 5.45758L38.0756 7.06691C37.0868 5.42602 35.8982 4.60558 34.5098 4.60558C32.8899 4.60558 32.08 5.24721 32.08 6.53047C32.08 6.80395 32.1747 7.15106 32.364 7.5718C32.5744 7.99254 32.9215 8.55002 33.4053 9.24424C33.9102 9.93846 34.373 10.5591 34.7938 11.106C35.2145 11.653 35.8667 12.4945 36.7502 13.6305C37.6548 14.7454 38.3701 15.6395 38.896 16.3127C39.2326 15.366 39.5166 14.1564 39.748 12.6838L44.3235 13.5042C44.1132 14.9137 43.7766 16.2496 43.3138 17.5118C42.851 18.753 42.4092 19.7102 41.9884 20.3833L46.5009 26.0002H40.4107L39.0853 24.3278C37.1499 25.8424 34.9831 26.5998 32.5849 26.5998C29.808 26.5998 27.6412 25.8635 26.0845 24.3909C24.5277 22.8973 23.7493 21.0881 23.7493 18.9633Z" fill="white"/>
  <path d="M49.4671 26.0002V0.15625H59.7858C62.6047 0.15625 64.7926 0.903064 66.3493 2.39669C67.906 3.86928 68.6844 5.82573 68.6844 8.26602C68.6844 10.7694 67.8745 12.7574 66.2546 14.23C64.6558 15.6816 62.5416 16.4073 59.912 16.4073H54.7053V26.0002H49.4671ZM54.7053 11.8949H59.1862C60.4695 11.8949 61.4687 11.5794 62.184 10.9482C62.8992 10.3171 63.2569 9.42306 63.2569 8.26602C63.2569 5.8678 61.9105 4.66869 59.2178 4.66869H54.7053V11.8949Z" fill="white"/>
  <path d="M71.307 26.0002V24.2353H73.1757V26.0002H71.307Z" fill="white"/>
  <path d="M76.3941 26.0002V14.8917H77.5806V26.0002H76.3941Z" fill="white"/>
  <path d="M80.6506 26.0002V14.8917H82.015L86.1084 21.981L87.4432 24.3243H87.5322C87.4136 23.4048 87.3542 22.3567 87.3542 21.1801V14.8917H88.5407V26.0002H87.1763L83.0681 18.8665L81.7481 16.5825H81.6888C81.7876 17.5712 81.8371 18.6143 81.8371 19.7118V26.0002H80.6506Z" fill="white"/>
  <path d="M90.8544 20.4534C90.8544 18.644 91.2944 17.2202 92.1743 16.182C93.0543 15.1439 94.1963 14.6248 95.6003 14.6248C96.4704 14.6248 97.207 14.867 97.8102 15.3515C98.4232 15.8261 98.883 16.3946 99.1895 17.0571L98.1809 17.413C97.5185 16.2265 96.6484 15.6333 95.5707 15.6333C94.5028 15.6333 93.6525 16.0733 93.0197 16.9533C92.3869 17.8233 92.0705 18.9901 92.0705 20.4534C92.0705 21.9365 92.3919 23.1082 93.0346 23.9684C93.6772 24.8187 94.5226 25.2438 95.5707 25.2438C96.2331 25.2438 96.8115 25.0609 97.3059 24.6951C97.8003 24.3194 98.1711 23.8596 98.4182 23.3158L99.4861 23.6569C99.1499 24.3787 98.6605 24.9967 98.0178 25.5108C97.3751 26.0151 96.5693 26.2672 95.6003 26.2672C94.2062 26.2672 93.0642 25.753 92.1743 24.7248C91.2944 23.6866 90.8544 22.2628 90.8544 20.4534Z" fill="white"/>
</svg>
