<svg width="1920" height="392" viewBox="0 0 1920 392" fill="none" xmlns="http://www.w3.org/2000/svg">
  <path d="M383.094 19.1186C455.035 13.1259 521.734 2.74566 587.202 37.8458C632.774 62.2983 658.448 106.227 711.079 119.978C823.349 149.3 915.347 38.5414 1028.85 59.1949C1143.04 79.9554 1218.67 229.559 1345.23 169.258C1405.4 140.578 1446.05 78.6177 1507.61 52.3461C1612.13 7.77526 1650.32 60.265 1722.26 139.454M323.082 40.3606C394.006 30.676 482.367 7.18669 553.345 33.6188C603.73 52.3996 631.597 105.852 679.789 126.078C806.34 179.103 888.176 44.2131 1012.05 68.398C1143.58 94.0275 1204.66 239.19 1349.13 184.56C1420.32 157.647 1469.85 79.0458 1547.73 68.8795C1642.35 56.5196 1694.77 135.923 1757.4 198.954M257.88 65.6156C342.979 52.3996 452.093 15.4802 536.389 44.5876C591.963 63.7429 620.578 112.434 670.696 139.668C802.008 210.939 863.251 46.2999 990.176 71.6619C1123.73 98.3081 1203.81 270.813 1354.27 209.173C1421.28 181.724 1486.65 109.972 1562.33 103.98C1654.54 96.7029 1729.64 202.378 1798.37 249.357M191.61 90.5496C291.257 82.5237 421.338 29.4988 519.862 53.8442C580.463 68.826 607.367 129.181 657.966 157.326C794.894 233.412 843.033 67.4884 974.023 87.2857C1158.55 115.163 1197.17 306.715 1400.85 214.845C1464.82 186.005 1540.56 129.502 1616.19 148.658C1705.62 171.291 1754.35 257.918 1848.65 282.156M124.269 108.956C237.127 120.139 333.993 86.9647 445.14 81.4C522.108 77.5476 547.996 102.749 605.388 139.936C682.677 189.964 705.196 216.129 798.478 180.119C869.188 152.831 892.829 98.8431 975.628 113.825C1057.89 128.7 1121.7 206.444 1194.61 242.722C1282.59 286.543 1345.71 254.761 1431.71 223.888C1514.14 194.352 1585.81 149.781 1669.31 199.917C1702.63 229.078 1736.7 257.329 1771.57 284.671C1814.68 304.361 1859.94 314.367 1907.38 314.634M46.1774 129.984C147.429 141.648 235.416 146.089 336.935 133.141C420.91 122.439 487.555 116.875 565.166 152.403C631.811 182.955 668.45 219.714 749.483 202.431C836.775 183.865 897.804 123.456 991.942 145.287C1069.34 163.211 1122.56 240.314 1198.3 263.215C1290.51 291.145 1382.45 256.58 1472.1 234.696C1583.89 207.408 1625.98 209.387 1717.18 278.196C1798.26 339.408 1877.69 341.173 1975.9 352.517M-45.9813 154.757C47.6216 165.566 143.578 183.811 237.983 180.868C333.512 177.872 427.65 154.543 522.376 177.926C578.11 191.677 626.034 220.998 684.068 224.262C791.952 230.362 892.562 148.497 1000.77 183.972C1070.57 206.872 1123.95 266.8 1195.19 287.507C1280.72 312.334 1382.99 292.001 1468.25 275.735C1509.11 267.923 1563.67 246.039 1605.98 253.048C1660.43 262.091 1701.13 313.083 1747.61 338.498C1837.9 387.885 1955.3 385.53 2056.5 397.248M-156.165 184.453C52.3819 208.531 258.629 225.974 468.086 237.05C520.611 239.832 571.263 246.628 623.36 251.39C735.63 261.663 848.381 199.221 959.368 226.188C1057.41 249.999 1137.59 322.66 1236.38 345.936C1325.17 366.857 1421.34 353.266 1511.57 348.236C1621.38 342.083 1704.66 393.289 1810.35 411.267C1923.21 430.476 2039.38 437.699 2153.1 450.808M-290.419 220.57C-61.0113 247.056 168.343 273.755 397.75 299.974C453.377 306.341 505.848 306.501 561.101 305.485C678.452 303.344 809.496 265.248 925.724 281.674C1044.68 298.475 1144.54 384.032 1263.71 404.632C1358.38 420.951 1457.17 422.503 1552.7 433.258C1792.06 460.118 2031.31 488.477 2270.61 516.086M-457.567 265.515C-195.104 295.8 67.3584 326.031 329.875 356.369C406.094 365.198 481.886 376.167 557.998 386.012C675.136 401.208 794.947 371.672 910.534 391.309C1033.5 412.176 1133.04 504.368 1260.34 509.398C1385.07 514.32 1503.66 491.847 1629.62 506.294C1892.08 536.418 2154.54 566.863 2417.06 597.148M2478.2 686.343C2336.61 602.285 2195.03 518.226 2053.45 434.168C1988.09 395.375 1920.64 358.67 1856.83 317.417C1756.28 252.353 1709.64 152.189 1653.9 50.0988M2352.18 671.789C2223.33 589.176 2094.42 506.615 1965.57 424.001C1903.1 383.979 1831.32 347.969 1780.51 292.911C1709.37 215.808 1666.2 112.38 1610.2 23.6131M2226.22 657.236C2110.1 576.12 1993.23 495.86 1877.75 413.835C1730.87 309.551 1682.84 140.257 1558.37 15.9082M2100.25 642.735C1998.79 564.616 1880.74 491.794 1790.51 400.78C1677.33 286.65 1660.11 113.236 1504.03 40.4141M1974.24 628.182C1883.95 550.383 1768.26 473.709 1706.8 370.923C1628.55 240.046 1615.93 125.382 1455.2 85.2525M1848.27 613.681C1764.3 531.121 1661.28 455.731 1623.9 341.602C1588.06 232.181 1523.77 144.27 1401.33 130.037M1722.31 599.128C1645.08 510.093 1581.69 441.337 1538.42 333.683C1495.63 227.151 1424.6 212.919 1330.84 163.853M1596.3 584.574C1539.92 505.492 1489.96 426.784 1439.36 344.544C1395.66 273.488 1328.64 235.017 1277.4 170.221M1470.39 569.967C1417.65 498.589 1394.76 418.49 1343.62 348.771C1289.55 275.04 1266.6 242.936 1229.91 157.219M1344.32 555.627C1263.39 518.333 1289.06 412.926 1252.43 346.578C1207.28 264.873 1198.46 225.439 1181.5 130.251M1217.87 542.625C1141.71 506.027 1177.38 381.731 1157.59 313.939C1137 243.364 1107.47 171.184 1133.63 96.7029M1077.9 565.365C1036.92 445.511 1055.27 380.768 1059.71 262.84C1075.65 226.723 1073.35 191.677 1052.81 157.7C1040.13 118.64 1051.21 88.7839 1086.03 68.0769M940.594 581.31C915.775 441.98 898.873 342.672 965.626 220.998C992.53 171.933 984.721 185.952 985.737 132.82C986.432 97.452 967.712 57.4292 1030.61 49.4567M825.863 536.418C786.657 401.101 780.934 330.686 865.176 217.52C915.668 149.674 901.548 90.6031 980.442 48.4936M713.7 484.357C643.846 380.982 647.697 315.33 751.516 240.582C826.077 186.915 858.865 114.735 929.415 60.4255M588.219 468.305C550.189 368.034 533.448 305.003 641.92 250.373C685.619 227.205 730.87 207.782 777.724 192.051C807.838 152.135 840.947 114.949 877.104 80.4369M462.684 453.804C522.108 385.156 492.637 298.047 568.535 237.906C610.737 204.465 636.785 212.491 684.977 202.217C760.608 186.112 772.857 162.302 827.896 98.201M336.507 439.304C418.45 374.294 460.758 310.835 528.634 234.214C568.589 189.108 572.975 191.463 628.334 182.634C706.372 170.221 713.058 170.114 778.794 108.635M210.544 424.75C302.061 364.235 403.901 309.605 479.693 229.345C506.116 201.361 529.383 164.335 568.535 152.082C646.36 127.737 655.292 151.654 730.549 107.725M84.5814 410.197C190.54 350.591 298.21 295.372 394.808 221.48C440.005 186.861 486.646 141.167 540.561 120.353C588.647 101.786 640.85 112.701 688.882 93.5995M-41.4349 395.696C73.563 339.836 194.765 289.379 302.329 220.249C361.753 182.046 416.578 136.458 480.067 104.568C544.787 72.0899 586.774 76.745 656.148 71.6084M-167.398 381.143C-42.5582 328.064 88.165 281.032 209.421 219.875C345.225 151.44 460.277 31.104 620.685 46.2999M-293.361 366.642C-155.31 314.848 -16.6702 264.445 120.846 211.206C271.145 152.992 412.299 24.4692 577.521 22.222M-419.377 352.089C-268.596 301.739 -117.815 251.39 32.966 201.094C204.233 143.895 360.79 48.8682 536.015 7.40071M-545.34 337.535C-381.829 288.684 -218.371 239.779 -54.8604 190.928C129.939 135.709 304.682 58.3388 488.251 1.51501M-671.302 323.035C-382.898 356.316 -94.4944 389.543 193.91 422.824C329.982 438.502 466.214 453.43 602.232 469.91C661.389 477.08 710.277 481.628 765.904 503.779C827.414 528.232 873.627 570.448 941.396 579.116C1014.67 588.48 1084.74 559.801 1156.25 548.832C1215.41 539.736 1271.15 547.601 1330.3 554.022C1456.59 567.719 1582.71 583.022 1708.94 597.576C2007.35 631.981 2305.75 666.439 2604.16 700.843C2449.85 615.34 2295.59 529.783 2141.28 444.28C2065.86 402.492 1990.5 360.703 1915.08 318.861C1805.91 258.346 1753.12 194.138 1691.02 82.7912C1509 -95.8666 1492.9 130.733 1314.84 167.759C1210.54 189.429 1132.29 71.1268 1037.46 50.7409C930.966 27.8937 847.258 119.497 743.6 108.956C682.624 102.749 662.459 71.5549 613.732 41.9658C547.729 1.88955 515.369 0.123844 435.459 1.24748C71.2096 126.452 -299.137 222.871 -671.302 323.035Z" stroke="white" stroke-opacity="0.25" stroke-width="0.75" stroke-miterlimit="10"/>
</svg>
