<svg fill="none" height="80" viewBox="0 0 80 80" width="80" xmlns="http://www.w3.org/2000/svg">
  <path
    d="M20 13.3333V66.6666C19.9998 67.2597 20.1579 67.8421 20.4579 68.3537C20.758 68.8654 21.1891 69.2877 21.7067 69.5771C22.2244 69.8665 22.81 70.0126 23.4029 70.0002C23.9959 69.9878 24.5748 69.8174 25.08 69.5066L68.4133 42.84C68.8987 42.5417 69.2995 42.1241 69.5775 41.6269C69.8555 41.1297 70.0015 40.5696 70.0015 40C70.0015 39.4303 69.8555 38.8702 69.5775 38.373C69.2995 37.8758 68.8987 37.4582 68.4133 37.16L25.08 10.4933C24.5748 10.1825 23.9959 10.0121 23.4029 9.99975C22.81 9.98736 22.2244 10.1334 21.7067 10.4228C21.1891 10.7123 20.758 11.1346 20.4579 11.6462C20.1579 12.1578 19.9998 12.7402 20 13.3333Z"
    fill="white"/>
</svg>
