<svg fill="none" height="31" viewBox="0 0 98 31" width="98" xmlns="http://www.w3.org/2000/svg">
  <circle cx="94" cy="4" fill="#D9D9D9" r="4" transform="rotate(90 94 4)"/>
  <circle cx="76" cy="4" fill="#D9D9D9" r="4" transform="rotate(90 76 4)"/>
  <circle cx="58" cy="4" fill="#D9D9D9" r="4" transform="rotate(90 58 4)"/>
  <circle cx="40" cy="4" fill="#D9D9D9" r="4" transform="rotate(90 40 4)"/>
  <circle cx="22" cy="4" fill="#D9D9D9" r="4" transform="rotate(90 22 4)"/>
  <circle cx="76" cy="27" fill="#D9D9D9" r="4" transform="rotate(90 76 27)"/>
  <circle cx="58" cy="27" fill="#D9D9D9" r="4" transform="rotate(90 58 27)"/>
  <circle cx="40" cy="27" fill="#D9D9D9" r="4" transform="rotate(90 40 27)"/>
  <circle cx="22" cy="27" fill="#D9D9D9" r="4" transform="rotate(90 22 27)"/>
  <circle cx="4" cy="27" fill="#D9D9D9" r="4" transform="rotate(90 4 27)"/>
</svg>
