<svg fill="none" height="40" viewBox="0 0 40 40" width="40" xmlns="http://www.w3.org/2000/svg">
  <mask height="40" id="mask0_2321_2669" maskUnits="userSpaceOnUse" style="mask-type:alpha" width="40" x="0" y="0">
    <rect fill="#D9D9D9" height="40" width="40"/>
  </mask>
  <g mask="url(#mask0_2321_2669)">
    <path
      d="M19.7741 25.3103C18.8698 25.3103 18.096 24.9785 17.4526 24.315C16.8081 23.6526 16.4859 22.856 16.4859 21.925C16.4859 20.9941 16.8081 20.1969 17.4526 19.5334C18.096 18.871 18.8698 18.5398 19.7741 18.5398C20.6783 18.5398 21.4527 18.871 22.0972 19.5334C22.7406 20.1969 23.0623 20.9941 23.0623 21.925C23.0623 22.856 22.7406 23.6526 22.0972 24.315C21.4527 24.9785 20.6783 25.3103 19.7741 25.3103ZM13.0743 29.4148C12.1153 28.4839 11.348 27.3769 10.7726 26.0939C10.1972 24.8098 9.90943 23.4202 9.90943 21.925C9.90943 19.104 10.8685 16.7062 12.7866 14.7315C14.7047 12.7568 17.0339 11.7694 19.7741 11.7694C22.5142 11.7694 24.8434 12.7568 26.7615 14.7315C28.6796 16.7062 29.6387 19.104 29.6387 21.925C29.6387 23.4202 29.351 24.8166 28.7756 26.1142C28.2001 27.4119 27.4329 28.5121 26.4738 29.4148L24.131 27.0029C24.816 26.354 25.3569 25.5924 25.7537 24.7178C26.1516 23.8433 26.3505 22.9124 26.3505 21.925C26.3505 20.0632 25.7066 18.4693 24.4187 17.1434C23.1308 15.8176 21.5826 15.1546 19.7741 15.1546C17.9656 15.1546 16.4174 15.8176 15.1295 17.1434C13.8416 18.4693 13.1976 20.0632 13.1976 21.925C13.1976 22.9406 13.3966 23.8783 13.7945 24.7382C14.1912 25.5991 14.7321 26.354 15.4172 27.0029L13.0743 29.4148ZM8.42974 34.1964C6.86784 32.6449 5.62818 30.818 4.71077 28.7158C3.79226 26.6147 3.33301 24.3511 3.33301 21.925C3.33301 19.5836 3.76486 17.3832 4.62856 15.3239C5.49117 13.2646 6.66232 11.4732 8.14202 9.94989C9.62172 8.42654 11.3617 7.22028 13.3621 6.3311C15.3624 5.44305 17.4997 4.99902 19.7741 4.99902C22.0484 4.99902 24.1858 5.44305 26.1861 6.3311C28.1864 7.22028 29.9264 8.42654 31.4061 9.94989C32.8858 11.4732 34.057 13.2646 34.9196 15.3239C35.7833 17.3832 36.2151 19.5836 36.2151 21.925C36.2151 24.3511 35.7564 26.622 34.839 28.7378C33.9205 30.8535 32.6803 32.6731 31.1184 34.1964L28.8167 31.8268C30.0771 30.5855 31.0773 29.1118 31.8172 27.4057C32.557 25.6984 32.9269 23.8715 32.9269 21.925C32.9269 18.1449 31.6527 14.9431 29.1044 12.3195C26.556 9.696 23.4459 8.38423 19.7741 8.38423C16.1022 8.38423 12.9921 9.696 10.4438 12.3195C7.8954 14.9431 6.62122 18.1449 6.62122 21.925C6.62122 23.8715 6.99115 25.6911 7.73099 27.3837C8.47084 29.0763 9.48471 30.5432 10.7726 31.7845L8.42974 34.1964Z"
      fill="white" fill-opacity="0.35"/>
  </g>
</svg>
