<svg fill="none" height="84" viewBox="0 0 88 84" width="88" xmlns="http://www.w3.org/2000/svg">
  <path
    d="M44.2846 0.64884C44.9269 0.651282 45.5587 0.811805 46.1243 1.11624C46.6899 1.42068 47.1718 1.85966 47.5275 2.39445L47.7916 2.85154L59.0296 25.6311L84.1695 29.276C87.0894 29.7016 88.4252 32.98 86.9396 35.2891L86.6638 35.6634L86.3564 36.0023L68.1359 53.7302L72.431 78.7716C72.5429 79.4248 72.4884 80.0957 72.2725 80.7223C72.0567 81.3489 71.6864 81.911 71.1959 82.3567C70.7055 82.8024 70.1106 83.1173 69.4663 83.2724C68.822 83.4275 68.149 83.4177 67.5094 83.244L67.1114 83.1061L66.7134 82.9248L44.2806 71.1036L21.7966 82.9248C21.3829 83.1415 20.9612 83.2795 20.5357 83.3425L20.118 83.3819C19.568 83.402 19.0199 83.3071 18.5088 83.1031C17.9977 82.8992 17.5348 82.5907 17.1497 82.1975C16.7647 81.8043 16.466 81.335 16.2728 80.8197C16.0796 80.3044 15.9962 79.7545 16.0278 79.2051L16.0791 78.7716L20.3741 53.7302L2.15755 35.9984C1.68649 35.5395 1.33761 34.9702 1.14266 34.3422C0.947704 33.7141 0.912861 33.0473 1.0413 32.4024C1.16974 31.7575 1.45738 31.1549 1.87806 30.6495C2.29874 30.1441 2.8391 29.7518 3.45001 29.5085L3.89528 29.3666L4.34448 29.276L29.4804 25.6311L40.7224 2.85548C41.036 2.18013 41.5404 1.61132 42.1734 1.21921C42.8064 0.827098 43.5403 0.628824 44.2846 0.64884ZM44.2846 13.5498V62.7105C44.602 62.7105 44.9182 62.7489 45.2263 62.8247L45.6795 62.9666L46.1208 63.1636L63.3129 72.2226L60.0187 53.021C59.8563 52.072 60.0469 51.0965 60.5546 50.2784L60.8304 49.8883L61.1535 49.5337L75.1262 35.9274L55.8537 33.1376C54.9011 32.9993 54.0321 32.5172 53.4106 31.7821L53.1229 31.3999L52.8865 30.9822L44.2846 13.5498Z"
    fill="white"/>
</svg>
